<?xml version="1.0" encoding="UTF-8"?>
<svg id="propuesta_1" data-name="propuesta 1" xmlns="http://www.w3.org/2000/svg" viewBox="0 0 558.92 454.94">
  <defs>
    <style>
      .cls-1 {
        fill: #124c67;
      }

      .cls-1, .cls-2 {
        stroke-width: 0px;
      }

      .cls-2 {
        fill: #28855e;
      }
    </style>
  </defs>
  <rect class="cls-2" y="233.53" width="29.65" height="220.01"/>
  <rect class="cls-2" x="124.87" y="233.53" width="31.74" height="221.41"/>
  <polyline class="cls-2" points="328.31 454.94 250.19 233.53 220.08 233.53 156.6 413.08 144.91 454.94 172.88 454.94 233.71 278.1 295.05 454.94"/>
  <rect class="cls-2" x="357" y="233.53" width="30" height="220.01"/>
  <g>
    <rect class="cls-1" x="22.56" y="347.2" width="248.43" height="30.47"/>
    <path class="cls-1" d="m272.82,379.5H20.73v-34.13h252.09v34.13Zm-248.43-3.66h244.77v-26.81H24.39v26.81Z"/>
  </g>
  <g>
    <path class="cls-2" d="m184.27,102.62c1.31-.45,8.44,11.37,9.05,12.38,9.24,15.14,7.18,33.94,19.71,47.16,12.8,13.51,32.29,17.3,48.54,7.6,14.65-25.23.61-53.71-31.84-62.66-32.45-8.95-45.47-4.48-45.47-4.48Z"/>
    <path class="cls-2" d="m267.82.25c1.19.62-2.4,13.52-2.7,14.62-4.53,16.59-19.15,27.65-20.12,45.28-1,18.01,9.3,34.28,26.95,39.28,27.53-6.46,38.27-35.32,22.98-64.15C279.64,6.45,267.82.25,267.82.25Z"/>
    <path class="cls-2" d="m285.31,102.68c.91-.28,5.58,7.99,5.98,8.7,6.06,10.6,4.27,23.49,12.63,32.83,8.54,9.54,21.88,12.54,33.25,6.19,10.58-17.07,1.48-36.94-20.67-43.74-22.15-6.8-31.19-3.98-31.19-3.98Z"/>
  </g>
  <polygon class="cls-1" points="360.66 449.73 353.34 449.73 353.34 168.37 322.36 137.36 327.55 132.18 360.66 165.34 360.66 449.73"/>
  <polygon class="cls-1" points="331.97 248.34 324.65 248.34 324.65 198.13 272.57 146.05 272.57 81.87 279.89 81.87 279.89 143.02 331.97 195.1 331.97 248.34"/>
  <polygon class="cls-1" points="335.33 315.02 328.01 315.02 328.01 274.35 299.83 244.14 299.83 209.93 241.9 152.01 247.08 146.83 307.15 206.9 307.15 241.25 335.33 271.47 335.33 315.02"/>
  <path class="cls-1" d="m238.82,159.54c-7.03,0-12.74-5.72-12.74-12.74s5.72-12.74,12.74-12.74,12.74,5.72,12.74,12.74-5.72,12.74-12.74,12.74Zm0-18.16c-2.99,0-5.42,2.43-5.42,5.42s2.43,5.42,5.42,5.42,5.42-2.43,5.42-5.42-2.43-5.42-5.42-5.42Z"/>
  <path class="cls-1" d="m276.23,87.13c-7.02,0-12.74-5.72-12.74-12.74s5.72-12.74,12.74-12.74,12.74,5.72,12.74,12.74-5.72,12.74-12.74,12.74Zm0-18.16c-2.99,0-5.42,2.43-5.42,5.42s2.43,5.42,5.42,5.42,5.42-2.43,5.42-5.42-2.43-5.42-5.42-5.42Z"/>
  <path class="cls-1" d="m317.08,141.38c-7.02,0-12.74-5.72-12.74-12.74s5.72-12.74,12.74-12.74,12.74,5.72,12.74,12.74-5.72,12.74-12.74,12.74Zm0-18.16c-2.99,0-5.42,2.43-5.42,5.42s2.43,5.42,5.42,5.42,5.42-2.43,5.42-5.42-2.43-5.42-5.42-5.42Z"/>
  <g>
    <g>
      <path class="cls-2" d="m558.92,102.37c-1.31-.45-8.44,11.37-9.05,12.38-9.24,15.14-7.18,33.94-19.71,47.16-12.8,13.51-32.29,17.3-48.54,7.6-14.65-25.23-.61-53.71,31.84-62.66,32.45-8.95,45.47-4.48,45.47-4.48Z"/>
      <path class="cls-2" d="m475.37,0c-1.19.62,2.4,13.52,2.7,14.62,4.53,16.59,19.15,27.65,20.12,45.28s-9.3,34.28-26.95,39.28c-27.53-6.46-38.27-35.32-22.98-64.15C463.55,6.2,475.37,0,475.37,0Z"/>
      <path class="cls-2" d="m457.88,102.43c-.91-.28-5.58,7.99-5.98,8.7-6.06,10.6-4.27,23.49-12.63,32.83-8.54,9.54-21.88,12.54-33.25,6.19-10.58-17.07-1.48-36.94,20.67-43.74,22.15-6.8,31.19-3.98,31.19-3.98Z"/>
    </g>
    <polygon class="cls-1" points="389.85 449.48 382.53 449.48 382.53 165.09 415.64 131.93 420.83 137.1 389.85 168.12 389.85 449.48"/>
    <polygon class="cls-1" points="418.54 248.09 411.22 248.09 411.22 194.85 463.3 142.76 463.3 81.62 470.62 81.62 470.62 145.8 418.54 197.88 418.54 248.09"/>
    <polygon class="cls-1" points="415.18 314.77 407.86 314.77 407.86 271.21 436.04 241 436.04 206.64 496.11 146.57 501.29 151.75 443.36 209.68 443.36 243.88 415.18 274.1 415.18 314.77"/>
    <path class="cls-1" d="m504.37,159.28c-7.02,0-12.74-5.72-12.74-12.74s5.72-12.74,12.74-12.74,12.74,5.72,12.74,12.74-5.72,12.74-12.74,12.74Zm0-18.16c-2.99,0-5.42,2.43-5.42,5.42s2.43,5.42,5.42,5.42,5.42-2.43,5.42-5.42-2.43-5.42-5.42-5.42Z"/>
    <path class="cls-1" d="m466.96,86.88c-7.02,0-12.74-5.72-12.74-12.74s5.72-12.74,12.74-12.74,12.74,5.72,12.74,12.74-5.72,12.74-12.74,12.74Zm0-18.16c-2.99,0-5.42,2.43-5.42,5.42s2.43,5.42,5.42,5.42,5.42-2.43,5.42-5.42-2.43-5.42-5.42-5.42Z"/>
    <path class="cls-1" d="m426.11,141.13c-7.02,0-12.74-5.72-12.74-12.74s5.72-12.74,12.74-12.74,12.74,5.72,12.74,12.74-5.72,12.74-12.74,12.74Zm0-18.16c-2.99,0-5.42,2.43-5.42,5.42s2.43,5.42,5.42,5.42,5.42-2.43,5.42-5.42-2.43-5.42-5.42-5.42Z"/>
  </g>
</svg>